<mxfile host="app.diagrams.net" modified="2020-11-19T06:57:06.331Z" agent="5.0 (Macintosh; Intel Mac OS X 10_13_6) AppleWebKit/537.36 (KHTML, like Gecko) Chrome/86.0.4240.198 Safari/537.36" etag="-sHU7G4_-gLWnGFvAh5k" version="13.10.0" type="github">
  <diagram id="uuWFIZ6fe2qrYVUoLeSn" name="Page-1">
    <mxGraphModel dx="946" dy="536" grid="1" gridSize="10" guides="1" tooltips="1" connect="1" arrows="1" fold="1" page="1" pageScale="1" pageWidth="827" pageHeight="1169" math="0" shadow="0">
      <root>
        <mxCell id="0" />
        <mxCell id="1" parent="0" />
        <mxCell id="xvDYNdf5bJRVcwfIvzQL-3" value="" style="edgeStyle=orthogonalEdgeStyle;rounded=0;orthogonalLoop=1;jettySize=auto;html=1;" edge="1" parent="1" source="xvDYNdf5bJRVcwfIvzQL-1" target="xvDYNdf5bJRVcwfIvzQL-2">
          <mxGeometry relative="1" as="geometry" />
        </mxCell>
        <mxCell id="xvDYNdf5bJRVcwfIvzQL-1" value="开始" style="rounded=1;whiteSpace=wrap;html=1;" vertex="1" parent="1">
          <mxGeometry x="300" y="140" width="120" height="30" as="geometry" />
        </mxCell>
        <mxCell id="xvDYNdf5bJRVcwfIvzQL-7" value="" style="edgeStyle=orthogonalEdgeStyle;rounded=0;orthogonalLoop=1;jettySize=auto;html=1;" edge="1" parent="1" source="xvDYNdf5bJRVcwfIvzQL-2" target="xvDYNdf5bJRVcwfIvzQL-5">
          <mxGeometry relative="1" as="geometry" />
        </mxCell>
        <mxCell id="xvDYNdf5bJRVcwfIvzQL-2" value="生成streaming-sql" style="rounded=0;whiteSpace=wrap;html=1;" vertex="1" parent="1">
          <mxGeometry x="300" y="190" width="120" height="40" as="geometry" />
        </mxCell>
        <mxCell id="xvDYNdf5bJRVcwfIvzQL-8" value="" style="edgeStyle=orthogonalEdgeStyle;rounded=0;orthogonalLoop=1;jettySize=auto;html=1;" edge="1" parent="1" source="xvDYNdf5bJRVcwfIvzQL-5" target="xvDYNdf5bJRVcwfIvzQL-6">
          <mxGeometry relative="1" as="geometry" />
        </mxCell>
        <mxCell id="xvDYNdf5bJRVcwfIvzQL-13" value="" style="edgeStyle=orthogonalEdgeStyle;rounded=0;orthogonalLoop=1;jettySize=auto;html=1;" edge="1" parent="1" source="xvDYNdf5bJRVcwfIvzQL-5" target="xvDYNdf5bJRVcwfIvzQL-11">
          <mxGeometry relative="1" as="geometry" />
        </mxCell>
        <mxCell id="xvDYNdf5bJRVcwfIvzQL-5" value="category存在？" style="rhombus;whiteSpace=wrap;html=1;" vertex="1" parent="1">
          <mxGeometry x="320" y="250" width="80" height="80" as="geometry" />
        </mxCell>
        <mxCell id="xvDYNdf5bJRVcwfIvzQL-12" style="edgeStyle=orthogonalEdgeStyle;rounded=0;orthogonalLoop=1;jettySize=auto;html=1;entryX=0;entryY=0.5;entryDx=0;entryDy=0;exitX=0.5;exitY=1;exitDx=0;exitDy=0;" edge="1" parent="1" source="xvDYNdf5bJRVcwfIvzQL-6" target="xvDYNdf5bJRVcwfIvzQL-11">
          <mxGeometry relative="1" as="geometry" />
        </mxCell>
        <mxCell id="xvDYNdf5bJRVcwfIvzQL-6" value="创建category" style="rounded=0;whiteSpace=wrap;html=1;" vertex="1" parent="1">
          <mxGeometry x="150" y="260" width="120" height="60" as="geometry" />
        </mxCell>
        <mxCell id="xvDYNdf5bJRVcwfIvzQL-9" value="否" style="text;html=1;align=center;verticalAlign=middle;resizable=0;points=[];autosize=1;" vertex="1" parent="1">
          <mxGeometry x="275" y="260" width="30" height="20" as="geometry" />
        </mxCell>
        <mxCell id="xvDYNdf5bJRVcwfIvzQL-16" value="" style="edgeStyle=orthogonalEdgeStyle;rounded=0;orthogonalLoop=1;jettySize=auto;html=1;" edge="1" parent="1" source="xvDYNdf5bJRVcwfIvzQL-11" target="xvDYNdf5bJRVcwfIvzQL-15">
          <mxGeometry relative="1" as="geometry" />
        </mxCell>
        <mxCell id="xvDYNdf5bJRVcwfIvzQL-18" value="" style="edgeStyle=orthogonalEdgeStyle;rounded=0;orthogonalLoop=1;jettySize=auto;html=1;" edge="1" parent="1" source="xvDYNdf5bJRVcwfIvzQL-11" target="xvDYNdf5bJRVcwfIvzQL-17">
          <mxGeometry relative="1" as="geometry" />
        </mxCell>
        <mxCell id="xvDYNdf5bJRVcwfIvzQL-11" value="任务是否存在" style="rhombus;whiteSpace=wrap;html=1;" vertex="1" parent="1">
          <mxGeometry x="320" y="360" width="80" height="80" as="geometry" />
        </mxCell>
        <mxCell id="xvDYNdf5bJRVcwfIvzQL-21" value="" style="edgeStyle=orthogonalEdgeStyle;rounded=0;orthogonalLoop=1;jettySize=auto;html=1;" edge="1" parent="1" source="xvDYNdf5bJRVcwfIvzQL-15" target="xvDYNdf5bJRVcwfIvzQL-19">
          <mxGeometry relative="1" as="geometry" />
        </mxCell>
        <mxCell id="xvDYNdf5bJRVcwfIvzQL-15" value="创建streaming-sql任务" style="rounded=0;whiteSpace=wrap;html=1;" vertex="1" parent="1">
          <mxGeometry x="300" y="470" width="120" height="40" as="geometry" />
        </mxCell>
        <mxCell id="xvDYNdf5bJRVcwfIvzQL-20" style="edgeStyle=orthogonalEdgeStyle;rounded=0;orthogonalLoop=1;jettySize=auto;html=1;entryX=1;entryY=0.5;entryDx=0;entryDy=0;" edge="1" parent="1" source="xvDYNdf5bJRVcwfIvzQL-17" target="xvDYNdf5bJRVcwfIvzQL-19">
          <mxGeometry relative="1" as="geometry">
            <Array as="points">
              <mxPoint x="520" y="570" />
            </Array>
          </mxGeometry>
        </mxCell>
        <mxCell id="xvDYNdf5bJRVcwfIvzQL-17" value="更新streaming-sql任务的Params" style="rounded=0;whiteSpace=wrap;html=1;" vertex="1" parent="1">
          <mxGeometry x="460" y="370" width="120" height="60" as="geometry" />
        </mxCell>
        <mxCell id="xvDYNdf5bJRVcwfIvzQL-26" value="" style="edgeStyle=orthogonalEdgeStyle;rounded=0;orthogonalLoop=1;jettySize=auto;html=1;" edge="1" parent="1" source="xvDYNdf5bJRVcwfIvzQL-19" target="xvDYNdf5bJRVcwfIvzQL-25">
          <mxGeometry relative="1" as="geometry" />
        </mxCell>
        <mxCell id="xvDYNdf5bJRVcwfIvzQL-28" value="" style="edgeStyle=orthogonalEdgeStyle;rounded=0;orthogonalLoop=1;jettySize=auto;html=1;" edge="1" parent="1" source="xvDYNdf5bJRVcwfIvzQL-19" target="xvDYNdf5bJRVcwfIvzQL-27">
          <mxGeometry relative="1" as="geometry" />
        </mxCell>
        <mxCell id="xvDYNdf5bJRVcwfIvzQL-19" value="判断任务状态" style="rhombus;whiteSpace=wrap;html=1;" vertex="1" parent="1">
          <mxGeometry x="320" y="530" width="80" height="80" as="geometry" />
        </mxCell>
        <mxCell id="xvDYNdf5bJRVcwfIvzQL-22" value="是" style="text;html=1;align=center;verticalAlign=middle;resizable=0;points=[];autosize=1;" vertex="1" parent="1">
          <mxGeometry x="410" y="380" width="30" height="20" as="geometry" />
        </mxCell>
        <mxCell id="xvDYNdf5bJRVcwfIvzQL-23" value="是" style="text;html=1;align=center;verticalAlign=middle;resizable=0;points=[];autosize=1;" vertex="1" parent="1">
          <mxGeometry x="355" y="330" width="30" height="20" as="geometry" />
        </mxCell>
        <mxCell id="xvDYNdf5bJRVcwfIvzQL-24" value="否" style="text;html=1;align=center;verticalAlign=middle;resizable=0;points=[];autosize=1;" vertex="1" parent="1">
          <mxGeometry x="355" y="440" width="30" height="20" as="geometry" />
        </mxCell>
        <mxCell id="xvDYNdf5bJRVcwfIvzQL-25" value="提交任务" style="rounded=0;whiteSpace=wrap;html=1;" vertex="1" parent="1">
          <mxGeometry x="300" y="640" width="120" height="40" as="geometry" />
        </mxCell>
        <mxCell id="xvDYNdf5bJRVcwfIvzQL-29" style="edgeStyle=orthogonalEdgeStyle;rounded=0;orthogonalLoop=1;jettySize=auto;html=1;entryX=0;entryY=0.5;entryDx=0;entryDy=0;" edge="1" parent="1" source="xvDYNdf5bJRVcwfIvzQL-27" target="xvDYNdf5bJRVcwfIvzQL-25">
          <mxGeometry relative="1" as="geometry">
            <mxPoint x="300" y="690" as="targetPoint" />
            <Array as="points">
              <mxPoint x="215" y="660" />
            </Array>
          </mxGeometry>
        </mxCell>
        <mxCell id="xvDYNdf5bJRVcwfIvzQL-27" value="kill掉任务" style="rounded=0;whiteSpace=wrap;html=1;" vertex="1" parent="1">
          <mxGeometry x="155" y="540" width="120" height="60" as="geometry" />
        </mxCell>
        <mxCell id="xvDYNdf5bJRVcwfIvzQL-30" value="是" style="text;html=1;align=center;verticalAlign=middle;resizable=0;points=[];autosize=1;" vertex="1" parent="1">
          <mxGeometry x="290" y="550" width="30" height="20" as="geometry" />
        </mxCell>
        <mxCell id="xvDYNdf5bJRVcwfIvzQL-31" value="否" style="text;html=1;align=center;verticalAlign=middle;resizable=0;points=[];autosize=1;" vertex="1" parent="1">
          <mxGeometry x="355" y="610" width="30" height="20" as="geometry" />
        </mxCell>
      </root>
    </mxGraphModel>
  </diagram>
</mxfile>
